<svg width="232" height="132" viewBox="0 0 232 132" fill="none" xmlns="http://www.w3.org/2000/svg">
<path d="M168.499 97.7002C166.601 97.7002 164.744 97.1372 163.166 96.0823C161.587 95.0274 160.357 93.5281 159.63 91.7739C158.903 90.0198 158.713 88.0895 159.084 86.2273C159.454 84.3651 160.368 82.6546 161.711 81.312C163.054 79.9694 164.764 79.0551 166.626 78.6847C168.489 78.3142 170.419 78.5043 172.173 79.2309C173.927 79.9576 175.426 81.188 176.481 82.7667C177.536 84.3454 178.099 86.2015 178.099 88.1002C178.099 90.6463 177.088 93.0881 175.287 94.8884C173.487 96.6888 171.045 97.7002 168.499 97.7002ZM62.7992 97.7002C60.9005 97.7002 59.0444 97.1372 57.4657 96.0823C55.887 95.0274 54.6565 93.5281 53.9299 91.7739C53.2033 90.0198 53.0132 88.0895 53.3837 86.2273C53.7541 84.3651 54.6684 82.6546 56.011 81.312C57.3536 79.9694 59.0641 79.0551 60.9263 78.6847C62.7885 78.3142 64.7188 78.5043 66.473 79.2309C68.2271 79.9576 69.7264 81.188 70.7813 82.7667C71.8362 84.3454 72.3992 86.2015 72.3992 88.1002C72.3992 90.6463 71.3878 93.0881 69.5874 94.8884C67.7871 96.6888 65.3453 97.7002 62.7992 97.7002ZM171.899 40.1002L191.099 7.00019C191.358 6.54697 191.525 6.04703 191.591 5.52908C191.656 5.01113 191.618 4.48539 191.48 3.98205C191.341 3.47872 191.105 3.00771 190.783 2.59607C190.462 2.18444 190.063 1.8403 189.609 1.58343C189.154 1.32655 188.653 1.162 188.135 1.09923C187.617 1.03645 187.091 1.07669 186.589 1.21763C186.086 1.35857 185.616 1.59744 185.206 1.9205C184.796 2.24357 184.454 2.64448 184.199 3.10019L164.799 36.6002C149.391 29.5592 132.64 25.9428 115.699 26.0002C98.7388 25.9587 81.965 29.5384 66.4992 36.5002L47.0992 3.00019C46.5792 2.09059 45.7203 1.4239 44.7101 1.14593C43.6999 0.867965 42.6207 1.00133 41.7086 1.51687C40.7965 2.03242 40.1257 2.88817 39.8428 3.89699C39.56 4.90581 39.6881 5.98559 40.1992 6.90019L59.2992 40.0002C42.7846 49.007 28.7772 61.9905 18.545 77.7753C8.31291 93.56 2.17922 111.647 0.699219 130.4H230.399C228.965 111.661 222.859 93.5791 212.641 77.8056C202.422 62.0321 188.415 49.0692 171.899 40.1002Z" fill="#3DDC84"/>
</svg>
